HIERARCHY
ROOT Hips
{
	OFFSET 0.00000 0.00000 0.00000
	CHANNELS 6 Xposition Yposition Zposition Zrotation Yrotation Xrotation 
	JOINT LHipJoint
	{
		OFFSET 0 0 0
		CHANNELS 3 Zrotation Yrotation Xrotation
		JOINT LeftHip
		{
			OFFSET 1.34019 -1.87553 0.90315
			CHANNELS 3 Zrotation Yrotation Xrotation
			JOINT LeftKnee
			{
				OFFSET 2.55316 -7.01474 0.00000
				CHANNELS 3 Zrotation Yrotation Xrotation
				JOINT LeftAnkle
				{
					OFFSET 2.64657 -7.27139 0.00000
					CHANNELS 3 Zrotation Yrotation Xrotation
					JOINT LeftToe
					{
						OFFSET 0.24207 -0.66507 2.14489
						CHANNELS 3 Zrotation Yrotation Xrotation
						End Site
						{
							OFFSET 0.00000 -0.00000 1.12451
						}
					}
				}
			}
		}
	}
	JOINT RHipJoint
	{
		OFFSET 0 0 0
		CHANNELS 3 Zrotation Yrotation Xrotation
		JOINT RightHip
		{
			OFFSET -1.28320 -1.87553 0.90315
			CHANNELS 3 Zrotation Yrotation Xrotation
			JOINT RightKnee
			{
				OFFSET -2.60484 -7.15674 0.00000
				CHANNELS 3 Zrotation Yrotation Xrotation
				JOINT RightAnkle
				{
					OFFSET -2.60296 -7.15159 0.00000
					CHANNELS 3 Zrotation Yrotation Xrotation
					JOINT RightToe
					{
						OFFSET -0.31082 -0.85398 2.28998
						CHANNELS 3 Zrotation Yrotation Xrotation
						End Site
						{
							OFFSET -0.00000 -0.00000 1.21611
						}
					}
				}
			}
		}
	}
	JOINT lowerback
	{
		OFFSET 0 0 0
		CHANNELS 3 Zrotation Yrotation Xrotation
		JOINT Chest
		{
			OFFSET -0.00160 2.05581 -0.15156
			CHANNELS 3 Zrotation Yrotation Xrotation
			JOINT Chest2
			{
				OFFSET 0.04594 2.06326 -0.01617
				CHANNELS 3 Zrotation Yrotation Xrotation
				JOINT lowerneck
				{
					OFFSET 0 0 0
					CHANNELS 3 Zrotation Yrotation Xrotation
					JOINT Neck
					{
						OFFSET 0.03753 1.73883 0.26751
						CHANNELS 3 Zrotation Yrotation Xrotation
						JOINT Head
						{
							OFFSET -0.09795 1.76129 -0.31794
							CHANNELS 3 Zrotation Yrotation Xrotation
							End Site
							{
								OFFSET -0.03611 1.79987 -0.13846
							}
						}
					}
				}
				JOINT LeftCollar
				{
					OFFSET 0 0 0
					CHANNELS 3 Zrotation Yrotation Xrotation
					JOINT LeftShoulder
					{
						OFFSET 3.30667 1.29205 -0.22445
CHANNELS 3 Zrotation Xrotation Yrotation
						JOINT LeftElbow
						{
OFFSET 0 -4.927850 -0.000000
CHANNELS 3 Zrotation Xrotation Yrotation
							JOINT LeftWrist
							{
OFFSET 0 -3.440520 0.000000
CHANNELS 3 Zrotation Xrotation Yrotation
								JOINT lhand
								{
									OFFSET 0 0 0
CHANNELS 3 Zrotation Xrotation Yrotation
									JOINT LFingers
									{
OFFSET 0 -0.654330 0.000000
CHANNELS 3 Zrotation Xrotation Yrotation
										End Site
										{
OFFSET 0 -0.527530 0.000000
										}
									}
								}
								JOINT LThumb
								{
OFFSET 0 0.000000 0.000000
CHANNELS 3 Zrotation Xrotation Yrotation
									End Site
									{
OFFSET 0 -0.535590 0.535590
									}
								}
							}
						}
					}
				}
				JOINT RightCollar
				{
					OFFSET 0 0 0
					CHANNELS 3 Zrotation Yrotation Xrotation
					JOINT RightShoulder
					{
						OFFSET -3.20032 1.49783 -0.27688
CHANNELS 3 Zrotation Xrotation Yrotation
						JOINT RightElbow
						{
OFFSET 0 -5.091810 -0.000000
CHANNELS 3 Zrotation Xrotation Yrotation
							JOINT RightWrist
							{
OFFSET 0 -3.498650 -0.000000
CHANNELS 3 Zrotation Xrotation Yrotation
								JOINT rhand
								{
									OFFSET 0 0 0
CHANNELS 3 Zrotation Xrotation Yrotation
									JOINT RFingers
									{
OFFSET 0 -0.666410 0.000000
CHANNELS 3 Zrotation Xrotation Yrotation
										End Site
										{
OFFSET 0 -0.537280 0.000000
										}
									}
								}
								JOINT RThumb
								{
OFFSET 0 0.000000 0.000000
CHANNELS 3 Zrotation Xrotation Yrotation
									End Site
									{
OFFSET 0 -0.545480 0.545480
									}
								}
							}
						}
					}
				}
			}
		}
	}
}
MOTION
Frames: 10
Frame Time: 0.008333333333333333
0.490975 17.217471 -7.007190 -8.471314 1.373296 0.286217 0.000000 0.000000 0.000000 -8.156083 -8.995085 -34.847300 2.296642 9.458158 27.239517 -1.073033 18.127127 -9.386808 0.819410 -5.775874 -16.135443 0.000000 0.000000 0.000000 27.882050 -6.005861 17.299805 -1.000325 -6.362640 17.840979 -0.290876 -9.126365 -17.268997 -1.443390 7.594372 -21.489067 4.132923 0.945211 6.808268 4.647489 1.856460 -1.239315 2.315868 0.869750 -5.147554 7.047771 1.850549 -25.366845 -4.960294 1.142462 18.171389 -2.739594 0.418368 10.016309 0.000000 0.000000 0.000000 -0.142453 12.096393 -13.859045 23.202376 -34.309240 7.252158 22.797949 -16.344868 2.487403 0.000000 0.000000 0.000000 -7.125000 0.000000 0.000000 -2.911206 27.278857 -1.254731 0.000000 0.000000 0.000000 -6.055556 -7.746582 4.274748 -10.202467 -17.055708 -1.533791 -19.372966 4.405093 7.399803 0.000000 0.000000 0.000000 7.125000 0.000000 0.000000 6.352429 37.749283 1.139432
0.542895 17.249924 -6.721600 -7.876214 0.774635 0.452888 0.000000 0.000000 0.000000 -8.821563 -8.802952 -34.489082 2.408772 9.669571 27.913563 -1.139084 18.510953 -7.792016 0.777421 -5.629104 -15.712205 0.000000 0.000000 0.000000 26.947444 -5.591092 17.125494 -1.217788 -6.993820 19.699660 -0.196604 -9.011560 -15.905225 -1.607778 7.994834 -22.699255 3.606123 1.001824 6.323823 4.299758 1.844631 -1.386170 2.254409 0.874695 -5.028131 7.130450 1.927120 -25.451169 -4.747875 1.166976 18.522971 -2.678799 0.465469 10.158860 0.000000 0.000000 0.000000 -0.099261 12.768869 -13.993801 22.801890 -33.870881 7.027803 23.090380 -17.206657 2.261010 0.000000 0.000000 0.000000 -7.125000 0.000000 0.000000 -2.689701 27.519108 -1.143893 0.000000 0.000000 0.000000 -5.372628 -7.235554 4.021744 -10.190069 -17.036366 -1.530196 -19.574446 4.573998 7.657801 0.000000 0.000000 0.000000 7.125000 0.000000 0.000000 6.214745 38.033974 1.070894
0.593690 17.286960 -6.443170 -7.405886 0.271398 0.717951 0.000000 0.000000 0.000000 -9.431054 -8.242676 -34.416463 2.529674 9.891000 28.624982 -1.116949 18.325860 -6.398524 0.720191 -5.421778 -15.115874 0.000000 0.000000 0.000000 26.172691 -5.129094 16.520157 -1.505158 -7.740229 21.932152 -0.093827 -8.925511 -14.285115 -1.753072 8.330437 -23.722989 3.206130 1.029601 5.843911 3.998489 1.816069 -1.592494 2.173327 0.867769 -4.971399 7.225914 2.001290 -25.430192 -4.659056 1.216861 18.683129 -2.656856 0.508847 10.216804 0.000000 0.000000 0.000000 -0.020971 13.307454 -14.174123 22.290726 -33.302958 6.745240 23.296947 -17.621840 2.224381 0.000000 0.000000 0.000000 -7.125000 0.000000 0.000000 -2.531316 27.555573 -1.074119 0.000000 0.000000 0.000000 -4.765249 -6.611734 4.296461 -10.260682 -17.146233 -1.550939 -19.620807 4.258502 7.670041 0.000000 0.000000 0.000000 7.125000 0.000000 0.000000 6.176920 38.049995 1.061865
0.642041 17.325677 -6.173314 -6.993376 -0.142669 0.956759 0.000000 0.000000 0.000000 -10.080505 -7.341959 -34.437559 2.654358 10.112810 29.343338 -1.025464 17.620027 -5.362484 0.641102 -5.120813 -14.253892 0.000000 0.000000 0.000000 25.461906 -4.714965 15.618752 -1.866492 -8.574311 24.477533 0.014574 -8.900501 -12.378235 -1.853196 8.553103 -24.407208 2.835327 1.037817 5.481375 3.739173 1.776754 -1.811538 2.119588 0.854964 -4.994968 7.340868 2.085502 -25.352174 -4.668883 1.299267 18.701443 -2.666074 0.555018 10.216405 0.000000 0.000000 0.000000 0.068415 13.680090 -14.366214 21.638385 -32.564503 6.390717 23.448080 -17.506767 2.371084 0.000000 0.000000 0.000000 -7.125000 0.000000 0.000000 -2.413526 27.393219 -1.033226 0.000000 0.000000 0.000000 -4.254533 -5.875998 5.087949 -10.418966 -17.392140 -1.597950 -19.506549 3.430933 7.418878 0.000000 0.000000 0.000000 7.125000 0.000000 0.000000 6.241527 37.778148 1.114989
0.688973 17.364965 -5.911380 -6.598454 -0.502592 1.072622 0.000000 0.000000 0.000000 -10.788855 -6.240340 -34.365067 2.780157 10.330109 30.052688 -0.903231 16.597916 -4.741914 0.548868 -4.744833 -13.182324 0.000000 0.000000 0.000000 24.737213 -4.402682 14.570557 -2.293235 -9.448140 27.210231 0.121519 -8.945683 -10.136511 -1.874607 8.599803 -24.551351 2.456421 1.040716 5.304853 3.513695 1.741942 -2.010566 2.102720 0.845095 -5.104960 7.436257 2.161362 -25.222084 -4.704608 1.387188 18.667994 -2.679626 0.598868 10.188656 0.000000 0.000000 0.000000 0.147946 13.893924 -14.525412 20.841901 -31.642495 5.967238 23.569025 -16.802513 2.635736 0.000000 0.000000 0.000000 -7.125000 0.000000 0.000000 -2.318460 27.102686 -1.008366 0.000000 0.000000 0.000000 -3.850866 -5.021400 6.322365 -10.663957 -17.771277 -1.672005 -19.227636 2.145780 6.888784 0.000000 0.000000 0.000000 7.125000 0.000000 0.000000 6.410214 37.203418 1.236124
0.735956 17.404688 -5.656471 -6.232470 -0.849901 1.021696 0.000000 0.000000 0.000000 -11.490433 -5.119466 -34.069047 2.904497 10.538698 30.739400 -0.791557 15.568601 -4.526503 0.453947 -4.320772 -11.981099 0.000000 0.000000 0.000000 23.996215 -4.179436 13.490319 -2.768708 -10.308312 29.983424 0.215625 -9.094520 -7.466271 -1.784798 8.402167 -23.942690 2.100256 1.048419 5.317523 3.322106 1.723475 -2.155144 2.104141 0.843551 -5.266503 7.504941 2.226913 -25.063222 -4.728437 1.470690 18.651904 -2.685431 0.640812 10.161590 0.000000 0.000000 0.000000 0.201761 13.931314 -14.592125 19.916542 -30.540649 5.489350 23.648235 -15.495627 2.924749 0.000000 0.000000 0.000000 -7.125000 0.000000 0.000000 -2.256040 26.785881 -0.998026 0.000000 0.000000 0.000000 -3.559251 -4.079942 7.907184 -10.991821 -18.275570 -1.773431 -18.755704 0.516095 6.074470 0.000000 0.000000 0.000000 7.125000 0.000000 0.000000 6.706029 36.322344 1.439406
0.784495 17.444864 -5.407632 -5.922992 -1.219756 0.822255 0.000000 0.000000 0.000000 -12.103703 -4.145840 -33.492324 3.020393 10.727798 31.367457 -0.712950 14.777182 -4.664742 0.361947 -3.860559 -10.685040 0.000000 0.000000 0.000000 23.279815 -3.980409 12.443245 -3.270323 -11.114703 32.673984 0.274630 -9.362832 -4.336874 -1.609820 7.997686 -22.708845 1.820280 1.066169 5.466523 3.165419 1.727519 -2.235009 2.095052 0.851557 -5.437902 7.492580 2.264188 -24.903874 -4.689474 1.531319 18.704676 -2.660144 0.674929 10.156542 0.000000 0.000000 0.000000 0.218367 13.809872 -14.493339 18.907248 -29.300471 4.986782 23.640696 -13.734058 3.195846 0.000000 0.000000 0.000000 -7.125000 0.000000 0.000000 -2.260848 26.490558 -1.015816 0.000000 0.000000 0.000000 -3.374507 -3.073848 9.737584 -11.402625 -18.902275 -1.904723 -18.109993 -1.249963 5.068195 0.000000 0.000000 0.000000 7.125000 0.000000 0.000000 7.122880 35.238720 1.720850
0.834983 17.486111 -5.164230 -5.686222 -1.611809 0.529557 0.000000 0.000000 0.000000 -12.604895 -3.367855 -32.661910 3.117279 10.882421 31.884484 -0.667432 14.295638 -4.985472 0.278796 -3.389778 -9.366364 0.000000 0.000000 0.000000 22.634451 -3.752636 11.431305 -3.782582 -11.859363 35.244070 0.276349 -9.732257 -0.836600 -1.360619 7.376334 -20.838249 1.647466 1.089320 5.696061 3.038325 1.748006 -2.259624 2.053664 0.864700 -5.595888 7.451264 2.297103 -24.785056 -4.641121 1.592404 18.827385 -2.627833 0.708633 10.183398 0.000000 0.000000 0.000000 0.204013 13.578712 -14.228296 17.889711 -28.012372 4.499098 23.511222 -11.730241 3.442079 0.000000 0.000000 0.000000 -7.125000 0.000000 0.000000 -2.358658 26.225766 -1.074566 0.000000 0.000000 0.000000 -3.277232 -2.043726 11.684252 -11.882694 -19.627759 -2.063256 -17.281231 -2.953038 3.919917 0.000000 0.000000 0.000000 7.125000 0.000000 0.000000 7.671527 34.009788 2.087518
0.887616 17.529355 -4.925523 -5.479158 -2.027563 0.187026 0.000000 0.000000 0.000000 -13.055298 -2.789697 -31.599370 3.182904 10.985426 32.230672 -0.654628 14.159093 -5.409408 0.205116 -2.909854 -8.028236 0.000000 0.000000 0.000000 22.027806 -3.469518 10.437456 -4.304391 -12.550147 37.714049 0.200464 -10.134513 2.883094 -1.080084 6.596368 -18.528343 1.541813 1.113733 5.954132 2.926727 1.774352 -2.235036 1.989544 0.878661 -5.717222 7.432131 2.349195 -24.696197 -4.634315 1.680315 18.974330 -2.610381 0.751146 10.226685 0.000000 0.000000 0.000000 0.149265 13.270543 -13.765164 16.919235 -26.748630 4.052356 23.233887 -9.641434 3.665807 0.000000 0.000000 0.000000 -7.125000 0.000000 0.000000 -2.568483 25.990337 -1.184479 0.000000 0.000000 0.000000 -3.259370 -1.031605 13.649708 -12.413418 -20.420968 -2.245011 -16.298753 -4.423595 2.685890 0.000000 0.000000 0.000000 7.125000 0.000000 0.000000 8.330769 32.700697 2.536185
0.942200 17.575387 -4.690631 -5.260313 -2.460650 -0.165171 0.000000 0.000000 0.000000 -13.512868 -2.406125 -30.339360 3.208067 11.024393 32.362303 -0.673049 14.358531 -5.879492 0.141333 -2.418409 -6.663768 0.000000 0.000000 0.000000 21.424488 -3.129616 9.424154 -4.844359 -13.204133 40.141345 0.042996 -10.470615 6.581093 -0.800792 5.705348 -15.933663 1.457780 1.134730 6.196428 2.818595 1.795346 -2.173020 1.917690 0.889397 -5.789485 7.480290 2.443788 -24.635799 -4.700113 1.818516 19.127012 -2.622497 0.812391 10.281998 0.000000 0.000000 0.000000 0.052838 12.900147 -13.105079 16.025097 -25.553542 3.657435 22.800319 -7.625712 3.864114 0.000000 0.000000 0.000000 -7.125000 0.000000 0.000000 -2.896047 25.788118 -1.349472 0.000000 0.000000 0.000000 -3.307790 -0.081594 15.561359 -12.973828 -21.248427 -2.444101 -15.219694 -5.566623 1.457601 0.000000 0.000000 0.000000 7.125000 0.000000 0.000000 9.060856 31.411372 3.046012
